<?xml version="1.0" encoding="UTF-8"?><svg xmlns="http://www.w3.org/2000/svg" viewBox="0 0 315.32 117.14"><defs><style>.d{fill:#0fb1a5;}.e{fill:#231f20;}</style></defs><g id="a"/><g id="b"><g id="c"><g><path class="e" d="M0,116.57V.56H50c5.66,0,10.89,1.17,15.69,3.51,4.79,2.34,8.9,5.39,12.34,9.15s6.13,8.06,8.09,12.91c1.96,4.85,2.94,9.72,2.94,14.62s-.93,10.11-2.78,14.95c-1.85,4.85-4.44,9.15-7.76,12.91-3.32,3.76-7.35,6.75-12.09,8.99-4.74,2.23-9.94,3.35-15.6,3.35H31.86v35.62H0ZM31.86,53.18h16.83c1.96,0,3.78-.9,5.47-2.7,1.69-1.8,2.53-5.04,2.53-9.72s-.98-8.06-2.94-9.8c-1.96-1.74-3.92-2.62-5.88-2.62H31.86v24.84Z"/><path class="e" d="M193.57,48.43V.57h-31.86V43.37h-38.9V.57h-31.86V116.58h31.86v-45.43h38.9v45.43h31.86v-48.41h-20.45l4.04-3.9,16.41-15.84Z"/><polygon class="d" points="315.32 65.9 287.36 65.9 287.36 117.14 258 117.14 258 72.32 236.05 72.32 236.05 117.14 206.69 117.14 206.69 65.9 178.73 65.9 193.57 51.58 247.02 0 315.32 65.9"/></g></g></g></svg>